<?xml version="1.0" encoding="utf-8"?>
<!-- Svg Vector Icons : http://www.onlinewebfonts.com/icon -->
<!DOCTYPE svg PUBLIC "-//W3C//DTD SVG 1.1//EN" "http://www.w3.org/Graphics/SVG/1.1/DTD/svg11.dtd">
<svg version="1.1" xmlns="http://www.w3.org/2000/svg" xmlns:xlink="http://www.w3.org/1999/xlink" x="0px" y="0px" viewBox="0 0 1000 1000" enable-background="new 0 0 1000 1000" xml:space="preserve">
<metadata> Svg Vector Icons : http://www.onlinewebfonts.com/icon </metadata>
<g><path d="M742.4,714H538.5h-75.3H259.4c-19.3,0-34.9,15.1-34.9,34.3s15.6,34.3,34.9,34.3h203.9h75.3h203.9c19.3,0,34.9-15.1,34.9-34.3S761.7,714,742.4,714z" style="fill:#fff;"/><path d="M742.4,471.3H538.5h-75.3H259.4c-19.3,0-34.9,15.1-34.9,34.3s15.6,34.4,34.9,34.4h203.9h75.3h203.9c19.3,0,34.9-15.1,34.9-34.4S761.7,471.3,742.4,471.3z" style="fill:#fff;"/><path d="M470.9,228.7H348.1h-0.4h-88.3c-19.3,0-34.9,15.1-34.9,34.4c0,19.3,15.6,34.3,34.9,34.3h88.3h0.4h122.8c19.3,0,34.9-15.1,34.9-34.3C505.8,243.7,490.2,228.7,470.9,228.7z" style="fill:#fff;"/><path d="M469.3,743.7" style="fill:#fff;"/><path d="M241,743.7" style="fill:#fff;"/><path d="M812.3,990H187.7c-72.2,0-131-58.7-131-131V141c0-72.2,58.7-131,131-131h624.5c72.2,0,131,58.8,131,131v718C943.2,931.3,884.5,990,812.3,990z M187.7,79.8c-33.7,0-61.2,27.4-61.2,61.2v718c0,33.7,27.4,61.2,61.2,61.2h624.5c33.7,0,61.2-27.4,61.2-61.2V141c0-33.8-27.4-61.2-61.2-61.2H187.7z" style="fill:#fff;"/><path d="M653,343.8c-8,0-16.1-2.8-22.7-8.4l-65.8-56.3c-14.7-12.5-16.4-34.6-3.8-49.2c12.5-14.7,34.6-16.4,49.2-3.9l39.9,34.1l113.6-126.9c12.8-14.4,34.9-15.6,49.3-2.7c14.4,12.8,15.6,34.9,2.7,49.3L679,332.2C672.1,339.9,662.6,343.8,653,343.8z" style="fill:#fff;"/></g>
</svg>
